<svg width="51" height="51" viewBox="0 0 51 51" fill="none" xmlns="http://www.w3.org/2000/svg">
<g clip-path="url(#clip0_16_486)">
<rect y="0.967773" width="50" height="50" rx="19" fill="#02897A"/>
<path d="M29.1161 27.566L19.9732 18.4231C19.8661 18.3071 19.7232 18.2535 19.5714 18.2535C19.5 18.2535 19.4196 18.2713 19.3571 18.2981C19.1429 18.3874 19 18.5928 19 18.8249V32.2535C19 32.4856 19.1429 32.691 19.3571 32.7803C19.4196 32.8071 19.5 32.8249 19.5714 32.8249C19.7232 32.8249 19.8661 32.7624 19.9732 32.6553L22.7589 29.8696L24.4643 33.9053C24.5893 34.191 24.9196 34.3338 25.2143 34.2088L26.7946 33.5392C27.0804 33.4142 27.2232 33.0838 27.0982 32.7892L25.3036 28.5392H28.7143C28.9464 28.5392 29.1518 28.3963 29.2411 28.1821C29.3304 27.9767 29.2857 27.7267 29.1161 27.566Z" fill="white"/>
</g>
<defs>
<clipPath id="clip0_16_486">
<rect width="51" height="50" fill="white" transform="translate(0 0.967773)"/>
</clipPath>
</defs>
</svg>
