<svg width="50" height="51" viewBox="0 0 50 51" fill="none" xmlns="http://www.w3.org/2000/svg">
<g clip-path="url(#clip0_16_510)">
<rect y="0.967773" width="50" height="50" rx="19" fill="#F03E3D"/>
<path d="M30.5714 20.3963H31.4286C31.5893 20.3963 31.7143 20.2713 31.7143 20.1106V19.5392C31.7143 19.3785 31.5893 19.2535 31.4286 19.2535H18.2857C18.125 19.2535 18 19.3785 18 19.5392V20.1106C18 20.2713 18.125 20.3963 18.2857 20.3963H19.1429C19.1429 23.6999 20.7232 26.0928 22.4732 27.2535C20.7232 28.4142 19.1429 30.8071 19.1429 34.1106H18.2857C18.125 34.1106 18 34.2356 18 34.3963V34.9678C18 35.1285 18.125 35.2535 18.2857 35.2535H31.4286C31.5893 35.2535 31.7143 35.1285 31.7143 34.9678V34.3963C31.7143 34.2356 31.5893 34.1106 31.4286 34.1106H30.5714C30.5714 30.8071 28.9911 28.4142 27.2411 27.2535C28.9911 26.0928 30.5714 23.6999 30.5714 20.3963ZM29.4286 20.3963C29.4286 21.6999 29.1339 22.8517 28.6696 23.8249H21.0446C20.5804 22.8517 20.2857 21.6999 20.2857 20.3963H29.4286ZM28.9196 31.2535H20.7946C21.4554 29.5303 22.6429 28.3071 23.8304 27.8249H25.8839C27.0714 28.3071 28.2589 29.5303 28.9196 31.2535Z" fill="white"/>
</g>
<defs>
<clipPath id="clip0_16_510">
<rect width="50" height="50" fill="white" transform="translate(0 0.967773)"/>
</clipPath>
</defs>
</svg>
