<svg width="50" height="51" viewBox="0 0 50 51" fill="none" xmlns="http://www.w3.org/2000/svg">
<g clip-path="url(#clip0_16_494)">
<rect y="0.967773" width="50" height="50" rx="19" fill="#4D8DFF"/>
<path d="M25.4821 25.6106L26.6518 26.1553L28.3929 25.6374V24.4231C28.3929 22.3606 26.6518 20.7088 24.5714 20.7088C22.5 20.7088 20.75 22.3517 20.75 24.3963V29.9321C20.75 30.441 20.3393 30.8428 19.8393 30.8428C19.3393 30.8428 18.9286 30.441 18.9286 29.9321V27.5928H16C16 29.941 16 29.9678 16 29.9678C16 32.0838 17.7143 33.7981 19.8304 33.7981C21.9286 33.7981 23.6607 32.1106 23.6607 30.0213V24.5571C23.6607 24.0571 24.0714 23.6463 24.5714 23.6463C25.0714 23.6463 25.4821 24.0571 25.4821 24.5571V25.6106ZM30.2143 27.5928V30.0481C30.2143 30.5481 29.8036 30.9499 29.3036 30.9499C28.8036 30.9499 28.3929 30.5481 28.3929 30.0481V27.6374L26.6518 28.1553L25.4821 27.6106V30.0035C25.4821 32.1017 27.2054 33.7981 29.3125 33.7981C31.4286 33.7981 33.1429 32.0838 33.1429 29.9678C33.1429 29.9678 33.1429 29.941 33.1429 27.5928H30.2143Z" fill="white"/>
</g>
<defs>
<clipPath id="clip0_16_494">
<rect width="50" height="50" fill="white" transform="translate(0 0.967773)"/>
</clipPath>
</defs>
</svg>
