<svg width="50" height="51" viewBox="0 0 50 51" fill="none" xmlns="http://www.w3.org/2000/svg">
<g clip-path="url(#clip0_16_502)">
<rect y="0.967773" width="50" height="50" rx="19" fill="#740A76"/>
<path d="M25 34.1106C25.1429 34.1106 25.2857 34.0571 25.3929 33.9499L30.9554 28.5928C31.0357 28.5124 33 26.7178 33 24.5749C33 21.9588 31.4018 20.3963 28.7321 20.3963C27.1696 20.3963 25.7054 21.6285 25 22.3249C24.2946 21.6285 22.8304 20.3963 21.2679 20.3963C18.5982 20.3963 17 21.9588 17 24.5749C17 26.7178 18.9643 28.5124 19.0357 28.5749L24.6071 33.9499C24.7143 34.0571 24.8571 34.1106 25 34.1106Z" fill="white"/>
</g>
<defs>
<clipPath id="clip0_16_502">
<rect width="50" height="50" fill="white" transform="translate(0 0.967773)"/>
</clipPath>
</defs>
</svg>
